Patient4_TMGait_0pt4_01_right_42_GRF.mot
version=1
nRows=52
nColumns=19
inDegrees=no
endheader
time	F1x	F1y	F1z	M1x	M1y	M1z	F2x	F2y	F2z	M2x	M2y	M2z	EC1x	EC1y	EC1z	EC2x	EC2y	EC2z
54.8	-14.1322	751.9489	59.6693	-256.4325	-64.6356	809.0225	16.3548	4.2314	-12.0094	4.3424	3.8246	-1.9287	-0.0592	0.0182	-0.0073	-0.0462	0.0165	0.9585
54.8134	-7.8771	748.9012	60.2359	-254.9085	-63.5479	804.9663	11.0126	3.5978	-8.162	3.2339	2.658	-0.44425	-0.0592	0.0182	-0.0073	-0.0462	0.0165	0.9585
54.8269	-1.9597	745.3642	60.5859	-253.2509	-62.1521	799.7122	6.45	3.0867	-4.8814	2.3037	1.661	0.85436	-0.0592	0.0182	-0.0073	-0.0462	0.0165	0.9585
54.8403	3.2608	741.7694	60.6967	-251.6256	-60.5199	793.7813	2.9322	2.7343	-2.3713	1.6096	0.90541	1.9086	-0.0592	0.0182	-0.0073	-0.0462	0.0165	0.9585
54.8537	7.663	738.5641	60.5748	-250.1839	-58.7189	787.7878	0.46662	2.5156	-0.63168	1.1431	0.39296	2.6826	-0.0592	0.0182	-0.0073	-0.0462	0.0165	0.9585
54.8671	11.2652	736.1303	60.2726	-249.0445	-56.8354	782.2917	-1.1006	2.4008	0.44546	0.86459	0.092769	3.2012	-0.0592	0.0182	-0.0073	-0.0462	0.0165	0.9585
54.8806	14.1824	734.7594	59.8258	-248.2942	-54.9189	777.7292	-1.9814	2.3381	1.0101	0.71539	-0.039641	3.4853	-0.0592	0.0182	-0.0073	-0.0462	0.0165	0.9585
54.894	16.5673	734.653	59.293	-247.9879	-53.0266	774.4072	-2.3848	2.2413	1.2168	0.62726	-0.051396	3.5122	-0.0592	0.0182	-0.0073	-0.0462	0.0165	0.9585
54.9074	18.5956	735.9242	58.7164	-248.1524	-51.1859	772.4933	-2.5111	2.028	1.1935	0.53541	0.026144	3.2626	-0.0592	0.0182	-0.0073	-0.0462	0.0165	0.9585
54.9209	20.4231	738.6039	58.1583	-248.7884	-49.4417	772.047	-2.479	1.5848	1.0454	0.37391	0.15352	2.6539	-0.0592	0.0182	-0.0073	-0.0462	0.0165	0.9585
54.9343	22.1817	742.623	57.6696	-249.8654	-47.8255	773.0043	-2.3926	0.79973	0.84559	0.083422	0.30518	1.605	-0.0592	0.0182	-0.0073	-0.0462	0.0165	0.9585
54.9477	24.0069	747.7771	57.3141	-251.3044	-46.3689	775.1483	-2.2851	-0.42857	0.6518	-0.38438	0.44214	0.01943	-0.0592	0.0182	-0.0073	-0.0462	0.0165	0.9585
54.9611	25.9791	753.679	57.1431	-252.9586	-45.099	778.0839	-2.1327	-2.1421	0.49407	-1.0512	0.52724	-2.1415	-0.0592	0.0182	-0.0073	-0.0462	0.0165	0.9585
54.9746	28.1509	759.7021	57.2135	-254.5977	-44.0554	781.18	-1.8847	-4.3	0.39944	-1.8999	0.50558	-4.8204	-0.0592	0.0182	-0.0073	-0.0462	0.0165	0.9585
54.988	30.51	764.9849	57.5544	-255.9094	-43.2684	783.6025	-1.4407	-6.717	0.39277	-2.852	0.30239	-7.7921	-0.0592	0.0182	-0.0073	-0.0462	0.0165	0.9585
55.0014	32.9993	768.5543	58.1865	-256.5402	-42.7772	784.4361	-0.68098	-8.9436	0.50796	-3.7276	-0.17086	-10.5076	-0.0592	0.0182	-0.0073	-0.0462	0.0165	0.9585
55.0149	35.5223	769.536	59.0955	-256.1741	-42.6021	782.8696	0.5423	-10.2262	0.77792	-4.2204	-1.008	-12.0593	-0.0592	0.0182	-0.0073	-0.0462	0.0165	0.9585
55.0283	37.962	767.3636	60.2543	-254.6067	-42.7591	778.415	2.3377	-9.4125	1.2387	-3.8624	-2.2906	-11.0581	-0.0592	0.0182	-0.0073	-0.0462	0.0165	0.9585
55.0417	40.2319	761.8961	61.591	-251.792	-43.2152	770.9889	4.7652	-4.9038	1.9119	-2.0051	-4.0572	-5.5793	-0.0592	0.0182	-0.0073	-0.0462	0.0165	0.9585
55.0551	42.2375	753.3447	63.0062	-247.8169	-43.9139	760.8618	7.7621	5.2917	2.7866	2.1585	-6.2542	6.7816	-0.0592	0.0182	-0.0073	-0.0462	0.0165	0.9585
55.0686	43.9343	742.0276	64.3379	-242.825	-44.7238	748.3692	11.0252	23.3852	3.7998	9.522	-8.6696	28.7057	-0.0592	0.0182	-0.0073	-0.0462	0.0165	0.9585
55.082	45.2819	728.0825	65.3699	-236.9187	-45.4529	733.6467	13.9406	51.4186	4.7969	20.9077	-10.8554	62.6598	-0.0592	0.0182	-0.0073	-0.0462	0.0165	0.9585
55.0954	46.2375	711.2041	65.7962	-230.0729	-45.8149	716.3645	15.4397	90.6055	5.4998	36.7941	-12.0361	110.1093	-0.0592	0.0182	-0.0073	-0.0462	0.0165	0.9585
55.1089	46.7647	690.5149	65.2827	-222.0861	-45.4834	695.5824	13.9888	140.332	5.4823	56.9151	-11.0881	170.3014	-0.0592	0.0182	-0.0073	-0.0462	0.0165	0.9585
55.1223	46.8227	664.7382	63.5211	-212.6249	-44.1523	669.9331	8.2612	197.3993	4.1622	79.9378	-6.8133	239.3825	-0.0592	0.0182	-0.0073	-0.0462	0.0165	0.9585
55.1357	46.3701	632.5541	60.3222	-201.3327	-41.6203	637.972	-1.0043	256.4948	0.84767	103.6353	1.2445	310.9344	-0.0592	0.0182	-0.0073	-0.0462	0.0165	0.9585
55.1491	45.3302	593.0338	55.7195	-187.9572	-37.9119	598.6642	-11.3694	311.7153	-4.4742	125.5888	12.0207	377.6281	-0.0592	0.0182	-0.0073	-0.0462	0.0165	0.9585
55.1626	43.6001	545.9054	50.0068	-172.4243	-33.3174	551.667	-20.8424	359.6661	-11.4526	144.4157	24.2316	435.1303	-0.0592	0.0182	-0.0073	-0.0462	0.0165	0.9585
55.176	41.0473	491.7616	43.6633	-154.8998	-28.3217	497.5428	-28.381	400.5823	-19.1136	160.2454	36.3247	483.5903	-0.0592	0.0182	-0.0073	-0.0462	0.0165	0.9585
55.1894	37.562	432.1098	37.145	-135.8204	-23.3889	437.793	-33.7292	436.6603	-26.6316	174.0188	47.2253	525.6639	-0.0592	0.0182	-0.0073	-0.0462	0.0165	0.9585
55.2029	33.119	369.1987	30.8143	-115.8477	-18.875	374.6694	-37.057	470.6437	-33.3222	186.9028	56.2501	564.6887	-0.0592	0.0182	-0.0073	-0.0462	0.0165	0.9585
55.2163	27.791	305.7227	24.8868	-95.7873	-14.9741	310.8791	-38.6964	505.1127	-39.1481	199.9648	63.501	603.815	-0.0592	0.0182	-0.0073	-0.0462	0.0165	0.9585
55.2297	21.7745	244.537	19.5207	-76.501	-11.7888	249.3038	-39.0123	542.013	-44.21	214.002	69.3055	645.4054	-0.0592	0.0182	-0.0073	-0.0462	0.0165	0.9585
55.2431	15.4425	188.3006	14.8161	-58.8007	-9.3118	192.6186	-38.5283	582.0419	-48.9218	229.2845	74.3615	690.4225	-0.0592	0.0182	-0.0073	-0.0462	0.0165	0.9585
55.2566	9.3105	139.0744	10.8423	-43.3236	-7.459	142.8911	-37.7724	624.3271	-53.4286	245.471	79.0885	737.9704	-0.0592	0.0182	-0.0073	-0.0462	0.0165	0.9585
55.27	3.9068	97.9938	7.6088	-30.4279	-6.0808	101.2633	-37.2231	666.9305	-57.8529	261.7928	83.8098	785.9234	-0.0592	0.0182	-0.0073	-0.0462	0.0165	0.9585
55.2834	-0.36899	65.23	5.0802	-20.1697	-5.0202	67.9281	-37.1596	707.5052	-61.9864	277.3327	88.4117	831.6113	-0.0592	0.0182	-0.0073	-0.0462	0.0165	0.9585
55.2969	-3.2974	40.213	3.1841	-12.3672	-4.139	42.3552	-37.6385	743.7518	-65.6785	291.196	92.721	872.3846	-0.0592	0.0182	-0.0073	-0.0462	0.0165	0.9585
55.3103	-4.8204	22.013	1.8001	-6.7176	-3.3053	23.6445	-38.5299	773.7309	-68.6572	302.6386	96.3724	905.9782	-0.0592	0.0182	-0.0073	-0.0462	0.0165	0.9585
55.3237	-5.0843	9.5892	0.83471	-2.8811	-2.4733	10.7823	-39.5792	795.9532	-70.7834	311.0987	99.0894	930.615	-0.0592	0.0182	-0.0073	-0.0462	0.0165	0.9585
55.3371	-4.5049	1.8962	0.20467	-0.52122	-1.6921	2.7298	-40.5274	809.582	-71.9276	316.265	100.6163	945.2692	-0.0592	0.0182	-0.0073	-0.0462	0.0165	0.9585
55.3506	-3.5537	-2.1848	-0.1337	0.71612	-1.066	-1.6161	-41.1095	814.4992	-72.0943	318.1046	100.8461	949.7334	-0.0592	0.0182	-0.0073	-0.0462	0.0165	0.9585
55.364	-2.5378	-3.7484	-0.27431	1.1734	-0.607	-3.3552	-41.1551	811.4512	-71.3548	316.9125	99.7944	944.8126	-0.0592	0.0182	-0.0073	-0.0462	0.0165	0.9585
55.3774	-1.6246	-3.7482	-0.27834	1.148	-0.31072	-3.4652	-40.5738	801.9899	-69.8727	313.2922	97.6204	932.2519	-0.0592	0.0182	-0.0073	-0.0462	0.0165	0.9585
55.3909	-0.89889	-2.9117	-0.21843	0.86521	-0.13221	-2.6864	-39.3532	788.2397	-67.8329	308.0687	94.544	914.4629	-0.0592	0.0182	-0.0073	-0.0462	0.0165	0.9585
55.4043	-0.36935	-1.7477	-0.11919	0.48334	-0.049945	-1.5494	-37.5711	772.5672	-65.4059	302.1622	90.8028	894.1508	-0.0592	0.0182	-0.0073	-0.0462	0.0165	0.9585
55.4177	-0.029916	-0.55626	-0.013291	0.096726	-0.029021	-0.36505	-35.3242	757.2329	-62.7684	296.451	86.6468	873.8883	-0.0592	0.0182	-0.0073	-0.0462	0.0165	0.9585
55.4311	0.16065	0.49323	0.087461	-0.2416	-0.0473	0.68407	-32.7296	744.1322	-60.093	291.6667	82.3271	855.8252	-0.0592	0.0182	-0.0073	-0.0462	0.0165	0.9585
55.4446	0.24076	1.3261	0.16595	-0.50901	-0.079204	1.5179	-29.8955	734.6149	-57.5651	288.3264	78.0988	841.4824	-0.0592	0.0182	-0.0073	-0.0462	0.0165	0.9585
55.458	0.23853	1.9483	0.22273	-0.70796	-0.11949	2.1499	-26.9144	729.4124	-55.3204	286.7085	74.1531	831.6739	-0.0592	0.0182	-0.0073	-0.0462	0.0165	0.9585
55.4714	0.19563	2.3756	0.25711	-0.84542	-0.15808	2.5929	-23.8597	728.6598	-53.4825	286.8546	70.6495	826.5548	-0.0592	0.0182	-0.0073	-0.0462	0.0165	0.9585
55.4849	0.12938	2.6523	0.27412	-0.93434	-0.19527	2.9007	-20.7666	731.9486	-52.0999	288.5931	67.6539	825.6758	-0.0592	0.0182	-0.0073	-0.0462	0.0165	0.9585
